<mxfile host="app.diagrams.net" agent="Mozilla/5.0 (Windows NT 10.0; Win64; x64) AppleWebKit/537.36 (KHTML, like Gecko) Chrome/114.0.0.0 Safari/537.36" version="24.7.7">
  <diagram name="第 1 页" id="n_i0u6rBE0ByXwQBgo-A">
    <mxGraphModel dx="1434" dy="764" grid="1" gridSize="10" guides="1" tooltips="1" connect="1" arrows="1" fold="1" page="1" pageScale="1" pageWidth="827" pageHeight="1169" math="0" shadow="0">
      <root>
        <mxCell id="0" />
        <mxCell id="1" parent="0" />
        <mxCell id="OPDngqEOzaKMacSp9gH6-7" style="edgeStyle=orthogonalEdgeStyle;rounded=0;orthogonalLoop=1;jettySize=auto;html=1;entryX=0;entryY=0.5;entryDx=0;entryDy=0;" edge="1" parent="1" source="OPDngqEOzaKMacSp9gH6-1" target="OPDngqEOzaKMacSp9gH6-3">
          <mxGeometry relative="1" as="geometry" />
        </mxCell>
        <mxCell id="OPDngqEOzaKMacSp9gH6-8" style="edgeStyle=orthogonalEdgeStyle;rounded=0;orthogonalLoop=1;jettySize=auto;html=1;entryX=0;entryY=0.5;entryDx=0;entryDy=0;" edge="1" parent="1" source="OPDngqEOzaKMacSp9gH6-1" target="OPDngqEOzaKMacSp9gH6-4">
          <mxGeometry relative="1" as="geometry" />
        </mxCell>
        <mxCell id="OPDngqEOzaKMacSp9gH6-9" value="" style="edgeStyle=orthogonalEdgeStyle;rounded=0;orthogonalLoop=1;jettySize=auto;html=1;" edge="1" parent="1" source="OPDngqEOzaKMacSp9gH6-1" target="OPDngqEOzaKMacSp9gH6-5">
          <mxGeometry relative="1" as="geometry" />
        </mxCell>
        <mxCell id="OPDngqEOzaKMacSp9gH6-10" style="edgeStyle=orthogonalEdgeStyle;rounded=0;orthogonalLoop=1;jettySize=auto;html=1;entryX=0;entryY=0.5;entryDx=0;entryDy=0;" edge="1" parent="1" source="OPDngqEOzaKMacSp9gH6-1" target="OPDngqEOzaKMacSp9gH6-6">
          <mxGeometry relative="1" as="geometry" />
        </mxCell>
        <mxCell id="OPDngqEOzaKMacSp9gH6-1" value="售后流程" style="whiteSpace=wrap;html=1;aspect=fixed;" vertex="1" parent="1">
          <mxGeometry x="120" y="340" width="80" height="80" as="geometry" />
        </mxCell>
        <mxCell id="OPDngqEOzaKMacSp9gH6-2" style="edgeStyle=orthogonalEdgeStyle;rounded=0;orthogonalLoop=1;jettySize=auto;html=1;exitX=0.5;exitY=1;exitDx=0;exitDy=0;" edge="1" parent="1" source="OPDngqEOzaKMacSp9gH6-1" target="OPDngqEOzaKMacSp9gH6-1">
          <mxGeometry relative="1" as="geometry" />
        </mxCell>
        <mxCell id="OPDngqEOzaKMacSp9gH6-15" style="edgeStyle=orthogonalEdgeStyle;rounded=0;orthogonalLoop=1;jettySize=auto;html=1;entryX=0;entryY=0.75;entryDx=0;entryDy=0;" edge="1" parent="1" source="OPDngqEOzaKMacSp9gH6-3" target="OPDngqEOzaKMacSp9gH6-11">
          <mxGeometry relative="1" as="geometry" />
        </mxCell>
        <mxCell id="OPDngqEOzaKMacSp9gH6-16" style="edgeStyle=orthogonalEdgeStyle;rounded=0;orthogonalLoop=1;jettySize=auto;html=1;" edge="1" parent="1" source="OPDngqEOzaKMacSp9gH6-3" target="OPDngqEOzaKMacSp9gH6-12">
          <mxGeometry relative="1" as="geometry" />
        </mxCell>
        <mxCell id="OPDngqEOzaKMacSp9gH6-17" style="edgeStyle=orthogonalEdgeStyle;rounded=0;orthogonalLoop=1;jettySize=auto;html=1;entryX=0;entryY=0.75;entryDx=0;entryDy=0;" edge="1" parent="1" source="OPDngqEOzaKMacSp9gH6-3" target="OPDngqEOzaKMacSp9gH6-13">
          <mxGeometry relative="1" as="geometry" />
        </mxCell>
        <mxCell id="OPDngqEOzaKMacSp9gH6-18" style="edgeStyle=orthogonalEdgeStyle;rounded=0;orthogonalLoop=1;jettySize=auto;html=1;entryX=0;entryY=0.5;entryDx=0;entryDy=0;" edge="1" parent="1" source="OPDngqEOzaKMacSp9gH6-3" target="OPDngqEOzaKMacSp9gH6-14">
          <mxGeometry relative="1" as="geometry" />
        </mxCell>
        <mxCell id="OPDngqEOzaKMacSp9gH6-3" value="仅退款" style="rounded=0;whiteSpace=wrap;html=1;" vertex="1" parent="1">
          <mxGeometry x="250" y="160" width="120" height="60" as="geometry" />
        </mxCell>
        <mxCell id="OPDngqEOzaKMacSp9gH6-22" style="edgeStyle=orthogonalEdgeStyle;rounded=0;orthogonalLoop=1;jettySize=auto;html=1;" edge="1" parent="1" source="OPDngqEOzaKMacSp9gH6-4" target="OPDngqEOzaKMacSp9gH6-19">
          <mxGeometry relative="1" as="geometry" />
        </mxCell>
        <mxCell id="OPDngqEOzaKMacSp9gH6-23" style="edgeStyle=orthogonalEdgeStyle;rounded=0;orthogonalLoop=1;jettySize=auto;html=1;entryX=0;entryY=0.5;entryDx=0;entryDy=0;" edge="1" parent="1" source="OPDngqEOzaKMacSp9gH6-4" target="OPDngqEOzaKMacSp9gH6-20">
          <mxGeometry relative="1" as="geometry" />
        </mxCell>
        <mxCell id="OPDngqEOzaKMacSp9gH6-24" style="edgeStyle=orthogonalEdgeStyle;rounded=0;orthogonalLoop=1;jettySize=auto;html=1;" edge="1" parent="1" source="OPDngqEOzaKMacSp9gH6-4" target="OPDngqEOzaKMacSp9gH6-21">
          <mxGeometry relative="1" as="geometry" />
        </mxCell>
        <mxCell id="OPDngqEOzaKMacSp9gH6-4" value="退货退款" style="rounded=0;whiteSpace=wrap;html=1;" vertex="1" parent="1">
          <mxGeometry x="250" y="290" width="120" height="60" as="geometry" />
        </mxCell>
        <mxCell id="OPDngqEOzaKMacSp9gH6-27" style="edgeStyle=orthogonalEdgeStyle;rounded=0;orthogonalLoop=1;jettySize=auto;html=1;" edge="1" parent="1" source="OPDngqEOzaKMacSp9gH6-5" target="OPDngqEOzaKMacSp9gH6-25">
          <mxGeometry relative="1" as="geometry" />
        </mxCell>
        <mxCell id="OPDngqEOzaKMacSp9gH6-5" value="冲单重开" style="rounded=0;whiteSpace=wrap;html=1;" vertex="1" parent="1">
          <mxGeometry x="250" y="390" width="120" height="60" as="geometry" />
        </mxCell>
        <mxCell id="OPDngqEOzaKMacSp9gH6-28" style="edgeStyle=orthogonalEdgeStyle;rounded=0;orthogonalLoop=1;jettySize=auto;html=1;" edge="1" parent="1" source="OPDngqEOzaKMacSp9gH6-6" target="OPDngqEOzaKMacSp9gH6-26">
          <mxGeometry relative="1" as="geometry" />
        </mxCell>
        <mxCell id="OPDngqEOzaKMacSp9gH6-6" value="异常签收" style="rounded=0;whiteSpace=wrap;html=1;" vertex="1" parent="1">
          <mxGeometry x="250" y="500" width="120" height="60" as="geometry" />
        </mxCell>
        <mxCell id="OPDngqEOzaKMacSp9gH6-41" style="edgeStyle=orthogonalEdgeStyle;rounded=0;orthogonalLoop=1;jettySize=auto;html=1;" edge="1" parent="1" source="OPDngqEOzaKMacSp9gH6-11" target="OPDngqEOzaKMacSp9gH6-29">
          <mxGeometry relative="1" as="geometry" />
        </mxCell>
        <mxCell id="OPDngqEOzaKMacSp9gH6-11" value="现货非调拨账期支付" style="rounded=0;whiteSpace=wrap;html=1;" vertex="1" parent="1">
          <mxGeometry x="414" y="100" width="126" height="30" as="geometry" />
        </mxCell>
        <mxCell id="OPDngqEOzaKMacSp9gH6-40" style="edgeStyle=orthogonalEdgeStyle;rounded=0;orthogonalLoop=1;jettySize=auto;html=1;entryX=0;entryY=0.5;entryDx=0;entryDy=0;" edge="1" parent="1" source="OPDngqEOzaKMacSp9gH6-12" target="OPDngqEOzaKMacSp9gH6-30">
          <mxGeometry relative="1" as="geometry" />
        </mxCell>
        <mxCell id="OPDngqEOzaKMacSp9gH6-12" value="现货非调拨非账期支付" style="rounded=0;whiteSpace=wrap;html=1;" vertex="1" parent="1">
          <mxGeometry x="414" y="140" width="126" height="30" as="geometry" />
        </mxCell>
        <mxCell id="OPDngqEOzaKMacSp9gH6-37" style="edgeStyle=orthogonalEdgeStyle;rounded=0;orthogonalLoop=1;jettySize=auto;html=1;entryX=0;entryY=0.5;entryDx=0;entryDy=0;" edge="1" parent="1" source="OPDngqEOzaKMacSp9gH6-13" target="OPDngqEOzaKMacSp9gH6-31">
          <mxGeometry relative="1" as="geometry" />
        </mxCell>
        <mxCell id="OPDngqEOzaKMacSp9gH6-13" value="现货调拨" style="rounded=0;whiteSpace=wrap;html=1;" vertex="1" parent="1">
          <mxGeometry x="414" y="180" width="126" height="30" as="geometry" />
        </mxCell>
        <mxCell id="OPDngqEOzaKMacSp9gH6-36" style="edgeStyle=orthogonalEdgeStyle;rounded=0;orthogonalLoop=1;jettySize=auto;html=1;" edge="1" parent="1" source="OPDngqEOzaKMacSp9gH6-14" target="OPDngqEOzaKMacSp9gH6-32">
          <mxGeometry relative="1" as="geometry" />
        </mxCell>
        <mxCell id="OPDngqEOzaKMacSp9gH6-14" value="预售" style="rounded=0;whiteSpace=wrap;html=1;" vertex="1" parent="1">
          <mxGeometry x="414" y="220" width="126" height="30" as="geometry" />
        </mxCell>
        <mxCell id="OPDngqEOzaKMacSp9gH6-44" style="edgeStyle=orthogonalEdgeStyle;rounded=0;orthogonalLoop=1;jettySize=auto;html=1;" edge="1" parent="1" source="OPDngqEOzaKMacSp9gH6-19" target="OPDngqEOzaKMacSp9gH6-33">
          <mxGeometry relative="1" as="geometry" />
        </mxCell>
        <mxCell id="OPDngqEOzaKMacSp9gH6-19" value="现货非调拨" style="rounded=0;whiteSpace=wrap;html=1;" vertex="1" parent="1">
          <mxGeometry x="414" y="270" width="126" height="30" as="geometry" />
        </mxCell>
        <mxCell id="OPDngqEOzaKMacSp9gH6-45" style="edgeStyle=orthogonalEdgeStyle;rounded=0;orthogonalLoop=1;jettySize=auto;html=1;entryX=0;entryY=0.5;entryDx=0;entryDy=0;" edge="1" parent="1" source="OPDngqEOzaKMacSp9gH6-20" target="OPDngqEOzaKMacSp9gH6-34">
          <mxGeometry relative="1" as="geometry" />
        </mxCell>
        <mxCell id="OPDngqEOzaKMacSp9gH6-20" value="现货调拨" style="rounded=0;whiteSpace=wrap;html=1;" vertex="1" parent="1">
          <mxGeometry x="414" y="310" width="126" height="30" as="geometry" />
        </mxCell>
        <mxCell id="OPDngqEOzaKMacSp9gH6-46" style="edgeStyle=orthogonalEdgeStyle;rounded=0;orthogonalLoop=1;jettySize=auto;html=1;" edge="1" parent="1" source="OPDngqEOzaKMacSp9gH6-21" target="OPDngqEOzaKMacSp9gH6-35">
          <mxGeometry relative="1" as="geometry" />
        </mxCell>
        <mxCell id="OPDngqEOzaKMacSp9gH6-21" value="预售" style="rounded=0;whiteSpace=wrap;html=1;" vertex="1" parent="1">
          <mxGeometry x="414" y="350" width="126" height="30" as="geometry" />
        </mxCell>
        <mxCell id="OPDngqEOzaKMacSp9gH6-25" value="sale_refund_apply_reopen" style="rounded=0;whiteSpace=wrap;html=1;fillColor=#1ba1e2;fontColor=#ffffff;strokeColor=#006EAF;" vertex="1" parent="1">
          <mxGeometry x="414" y="405" width="186" height="30" as="geometry" />
        </mxCell>
        <mxCell id="OPDngqEOzaKMacSp9gH6-26" value="sale_refund_abnormal_v2" style="rounded=0;whiteSpace=wrap;html=1;fillColor=#d80073;fontColor=#ffffff;strokeColor=#A50040;" vertex="1" parent="1">
          <mxGeometry x="420" y="515" width="240" height="30" as="geometry" />
        </mxCell>
        <mxCell id="OPDngqEOzaKMacSp9gH6-29" value="sale_refund_payment_apply" style="rounded=0;whiteSpace=wrap;html=1;fillColor=#dae8fc;strokeColor=#6c8ebf;" vertex="1" parent="1">
          <mxGeometry x="570" y="100" width="180" height="30" as="geometry" />
        </mxCell>
        <mxCell id="OPDngqEOzaKMacSp9gH6-30" value="sale_refund_apply" style="rounded=0;whiteSpace=wrap;html=1;fillColor=#d5e8d4;strokeColor=#82b366;" vertex="1" parent="1">
          <mxGeometry x="570" y="140" width="180" height="30" as="geometry" />
        </mxCell>
        <mxCell id="OPDngqEOzaKMacSp9gH6-31" value="sale_refund_apply_direct_transfer" style="rounded=0;whiteSpace=wrap;html=1;fillColor=#ffe6cc;strokeColor=#d79b00;" vertex="1" parent="1">
          <mxGeometry x="570" y="180" width="220" height="30" as="geometry" />
        </mxCell>
        <mxCell id="OPDngqEOzaKMacSp9gH6-32" value="sale_refund_apply_prepare" style="rounded=0;whiteSpace=wrap;html=1;fillColor=#f8cecc;strokeColor=#b85450;" vertex="1" parent="1">
          <mxGeometry x="570" y="220" width="180" height="30" as="geometry" />
        </mxCell>
        <mxCell id="OPDngqEOzaKMacSp9gH6-33" value="sale_refund_apply_v3&lt;span style=&quot;white-space: pre;&quot;&gt;&#x9;&lt;/span&gt;" style="rounded=0;whiteSpace=wrap;html=1;fillColor=#e1d5e7;strokeColor=#9673a6;" vertex="1" parent="1">
          <mxGeometry x="570" y="270" width="180" height="30" as="geometry" />
        </mxCell>
        <mxCell id="OPDngqEOzaKMacSp9gH6-34" value="sale_refund_apply_direct_transfer" style="rounded=0;whiteSpace=wrap;html=1;fillColor=#ffe6cc;strokeColor=#d79b00;" vertex="1" parent="1">
          <mxGeometry x="570" y="310" width="220" height="30" as="geometry" />
        </mxCell>
        <mxCell id="OPDngqEOzaKMacSp9gH6-35" value="sale_refund_apply_prepare" style="rounded=0;whiteSpace=wrap;html=1;fillColor=#f8cecc;strokeColor=#b85450;" vertex="1" parent="1">
          <mxGeometry x="570" y="350" width="180" height="30" as="geometry" />
        </mxCell>
      </root>
    </mxGraphModel>
  </diagram>
</mxfile>
